<mxfile host="app.diagrams.net" agent="Mozilla/5.0 (X11; Linux x86_64) AppleWebKit/537.36 (KHTML, like Gecko) Chrome/136.0.0.0 Safari/537.36" version="27.0.9">
  <diagram name="Page-1" id="e7e014a7-5840-1c2e-5031-d8a46d1fe8dd">
    <mxGraphModel dx="1426" dy="793" grid="1" gridSize="10" guides="1" tooltips="1" connect="1" arrows="1" fold="1" page="1" pageScale="1" pageWidth="1169" pageHeight="826" background="none" math="0" shadow="0">
      <root>
        <mxCell id="0" />
        <mxCell id="1" parent="0" />
        <mxCell id="2" value="Professor" style="swimlane;whiteSpace=wrap" parent="1" vertex="1">
          <mxGeometry x="305" y="80" width="280" height="570" as="geometry" />
        </mxCell>
        <mxCell id="5" value="" style="ellipse;shape=startState;fillColor=#000000;strokeColor=#ff0000;" parent="2" vertex="1">
          <mxGeometry x="100" y="40" width="30" height="30" as="geometry" />
        </mxCell>
        <mxCell id="6" value="" style="edgeStyle=elbowEdgeStyle;elbow=horizontal;verticalAlign=bottom;endArrow=classic;endSize=8;strokeColor=light-dark(#000000, #ff9090);endFill=1;rounded=0" parent="2" source="5" edge="1">
          <mxGeometry x="100" y="40" as="geometry">
            <mxPoint x="115" y="110" as="targetPoint" />
          </mxGeometry>
        </mxCell>
        <mxCell id="5LyRE0h_gIaYNYSIcGGZ-44" style="edgeStyle=orthogonalEdgeStyle;rounded=0;orthogonalLoop=1;jettySize=auto;html=1;exitX=0.5;exitY=1;exitDx=0;exitDy=0;entryX=0.5;entryY=0;entryDx=0;entryDy=0;" edge="1" parent="2" source="5LyRE0h_gIaYNYSIcGGZ-42" target="5LyRE0h_gIaYNYSIcGGZ-43">
          <mxGeometry relative="1" as="geometry" />
        </mxCell>
        <mxCell id="5LyRE0h_gIaYNYSIcGGZ-42" value="View Students Table" style="rounded=1;whiteSpace=wrap;html=1;" vertex="1" parent="2">
          <mxGeometry x="55" y="110" width="120" height="60" as="geometry" />
        </mxCell>
        <mxCell id="5LyRE0h_gIaYNYSIcGGZ-43" value="Click Row of Table" style="rounded=1;whiteSpace=wrap;html=1;" vertex="1" parent="2">
          <mxGeometry x="55" y="220" width="120" height="60" as="geometry" />
        </mxCell>
        <mxCell id="5LyRE0h_gIaYNYSIcGGZ-49" value="" style="ellipse;html=1;shape=endState;fillColor=#000000;strokeColor=#ff0000;" vertex="1" parent="2">
          <mxGeometry x="125" y="510" width="30" height="30" as="geometry" />
        </mxCell>
        <mxCell id="5LyRE0h_gIaYNYSIcGGZ-56" style="edgeStyle=orthogonalEdgeStyle;rounded=0;orthogonalLoop=1;jettySize=auto;html=1;entryX=0;entryY=0.5;entryDx=0;entryDy=0;" edge="1" parent="2" source="5LyRE0h_gIaYNYSIcGGZ-52" target="5LyRE0h_gIaYNYSIcGGZ-55">
          <mxGeometry relative="1" as="geometry" />
        </mxCell>
        <mxCell id="5LyRE0h_gIaYNYSIcGGZ-59" style="edgeStyle=orthogonalEdgeStyle;rounded=0;orthogonalLoop=1;jettySize=auto;html=1;exitX=0.5;exitY=1;exitDx=0;exitDy=0;entryX=0;entryY=0.5;entryDx=0;entryDy=0;" edge="1" parent="2" source="5LyRE0h_gIaYNYSIcGGZ-52" target="5LyRE0h_gIaYNYSIcGGZ-57">
          <mxGeometry relative="1" as="geometry" />
        </mxCell>
        <mxCell id="5LyRE0h_gIaYNYSIcGGZ-52" value="" style="rhombus;whiteSpace=wrap;html=1;" vertex="1" parent="2">
          <mxGeometry x="35" y="344.5" width="37" height="37" as="geometry" />
        </mxCell>
        <mxCell id="5LyRE0h_gIaYNYSIcGGZ-55" value="Show &#39;Not Found&#39;" style="rounded=1;whiteSpace=wrap;html=1;" vertex="1" parent="2">
          <mxGeometry x="147" y="333" width="120" height="60" as="geometry" />
        </mxCell>
        <mxCell id="5LyRE0h_gIaYNYSIcGGZ-58" style="edgeStyle=orthogonalEdgeStyle;rounded=0;orthogonalLoop=1;jettySize=auto;html=1;exitX=0.5;exitY=1;exitDx=0;exitDy=0;entryX=0.5;entryY=0;entryDx=0;entryDy=0;" edge="1" parent="2" source="5LyRE0h_gIaYNYSIcGGZ-57" target="5LyRE0h_gIaYNYSIcGGZ-49">
          <mxGeometry relative="1" as="geometry" />
        </mxCell>
        <mxCell id="5LyRE0h_gIaYNYSIcGGZ-57" value="Show Student Profile" style="rounded=1;whiteSpace=wrap;html=1;" vertex="1" parent="2">
          <mxGeometry x="80" y="410" width="120" height="60" as="geometry" />
        </mxCell>
        <mxCell id="5LyRE0h_gIaYNYSIcGGZ-61" value="Not Found" style="text;html=1;align=center;verticalAlign=middle;whiteSpace=wrap;rounded=0;" vertex="1" parent="2">
          <mxGeometry x="72" y="333" width="60" height="30" as="geometry" />
        </mxCell>
        <mxCell id="5LyRE0h_gIaYNYSIcGGZ-62" value="Found" style="text;html=1;align=center;verticalAlign=middle;whiteSpace=wrap;rounded=0;" vertex="1" parent="2">
          <mxGeometry y="393" width="60" height="30" as="geometry" />
        </mxCell>
        <mxCell id="3" value="Students Service" style="swimlane;whiteSpace=wrap" parent="1" vertex="1">
          <mxGeometry x="585" y="80" width="280" height="570" as="geometry" />
        </mxCell>
        <mxCell id="5LyRE0h_gIaYNYSIcGGZ-51" value="Get Student" style="rounded=1;whiteSpace=wrap;html=1;" vertex="1" parent="3">
          <mxGeometry x="75" y="220" width="120" height="60" as="geometry" />
        </mxCell>
        <mxCell id="5LyRE0h_gIaYNYSIcGGZ-41" value="Selected Specific Student" style="text;html=1;align=center;verticalAlign=middle;whiteSpace=wrap;rounded=0;fontSize=36;fontStyle=1" vertex="1" parent="1">
          <mxGeometry x="310" y="20" width="550" height="50" as="geometry" />
        </mxCell>
        <mxCell id="5LyRE0h_gIaYNYSIcGGZ-53" style="edgeStyle=orthogonalEdgeStyle;rounded=0;orthogonalLoop=1;jettySize=auto;html=1;exitX=1;exitY=0.5;exitDx=0;exitDy=0;entryX=0;entryY=0.5;entryDx=0;entryDy=0;" edge="1" parent="1" source="5LyRE0h_gIaYNYSIcGGZ-43" target="5LyRE0h_gIaYNYSIcGGZ-51">
          <mxGeometry relative="1" as="geometry" />
        </mxCell>
        <mxCell id="5LyRE0h_gIaYNYSIcGGZ-54" style="edgeStyle=orthogonalEdgeStyle;rounded=0;orthogonalLoop=1;jettySize=auto;html=1;exitX=0.5;exitY=1;exitDx=0;exitDy=0;entryX=0.5;entryY=0;entryDx=0;entryDy=0;" edge="1" parent="1" source="5LyRE0h_gIaYNYSIcGGZ-51" target="5LyRE0h_gIaYNYSIcGGZ-52">
          <mxGeometry relative="1" as="geometry" />
        </mxCell>
      </root>
    </mxGraphModel>
  </diagram>
</mxfile>
